<svg width="44" height="44" viewBox="0 0 44 44" fill="none" xmlns="http://www.w3.org/2000/svg">
<g clip-path="url(#clip0_1_471)">
<path d="M44 12.8337V14.667C44 15.679 43.1805 16.5003 42.1667 16.5003C41.1528 16.5003 40.3333 15.679 40.3333 14.667V12.8337C40.3333 9.80133 37.8657 7.33366 34.8333 7.33366H9.16667C6.13433 7.33366 3.66667 9.80133 3.66667 12.8337V31.167C3.66667 34.1993 6.13433 36.667 9.16667 36.667H14.6667C15.6805 36.667 16.5 37.4883 16.5 38.5003C16.5 39.5123 15.6805 40.3337 14.6667 40.3337H9.16667C4.11217 40.3337 0 36.2215 0 31.167V12.8337C0 7.77916 4.11217 3.66699 9.16667 3.66699H34.8333C39.8878 3.66699 44 7.77916 44 12.8337ZM27.5 16.5003H34.8333C35.8472 16.5003 36.6667 15.679 36.6667 14.667C36.6667 13.655 35.8472 12.8337 34.8333 12.8337H27.5C26.4862 12.8337 25.6667 13.655 25.6667 14.667C25.6667 15.679 26.4862 16.5003 27.5 16.5003ZM42.3885 21.7785C43.4262 22.8162 44 24.1985 44 25.667C44 27.1355 43.4262 28.5178 42.3885 29.5573L30.0923 41.8535C28.7082 43.2377 26.8657 44.0022 24.9077 44.0022H22C20.9862 44.0022 20.1667 43.1808 20.1667 42.1688V39.2612C20.1667 37.3032 20.9293 35.4607 22.3153 34.0765L34.6115 21.7803C36.7565 19.6353 40.2435 19.6353 42.3885 21.7803V21.7785ZM40.3333 25.667C40.3333 25.1775 40.1427 24.7173 39.7962 24.3708C39.0793 23.654 37.9207 23.6558 37.2038 24.3708L24.9077 36.667C24.2257 37.3508 23.8333 38.295 23.8333 39.2593V40.3337H24.9077C25.8867 40.3337 26.807 39.9523 27.5 39.2593L39.7962 26.9632C40.1427 26.6167 40.3333 26.1565 40.3333 25.667ZM16.5 27.5003H12.342C11.6893 27.5003 11.0807 27.1483 10.7525 26.5837C10.2483 25.7055 9.12817 25.403 8.24817 25.9145C7.37183 26.4223 7.07117 27.5425 7.58083 28.4188C8.55983 30.1147 10.3858 31.167 12.3438 31.167H12.8352C12.8352 32.179 13.6547 33.0003 14.6685 33.0003C15.6823 33.0003 16.5018 32.179 16.5018 31.167C19.5342 31.167 22.0018 28.6993 22.0018 25.667C22.0018 23.1737 20.2162 21.0653 17.7577 20.6565L12.1825 19.727C11.4987 19.6133 11.0018 19.0267 11.0018 18.3337C11.0018 17.3235 11.8232 16.5003 12.8352 16.5003H16.9932C17.6458 16.5003 18.2545 16.8523 18.5827 17.417C19.0868 18.2933 20.2052 18.594 21.087 18.0862C21.9633 17.5783 22.264 16.4582 21.7543 15.5818C20.7753 13.886 18.9493 12.8318 16.9913 12.8318H16.5C16.5 11.8198 15.6805 10.9985 14.6667 10.9985C13.6528 10.9985 12.8333 11.8198 12.8333 12.8318C9.801 12.8318 7.33333 15.2995 7.33333 18.3318C7.33333 20.8252 9.119 22.9335 11.5775 23.3423L17.1527 24.2718C17.8365 24.3855 18.3333 24.9722 18.3333 25.6652C18.3333 26.6753 17.512 27.4985 16.5 27.4985V27.5003ZM25.6667 22.0003C25.6667 23.0123 26.488 23.8337 27.5 23.8337C28.512 23.8337 29.3333 23.0123 29.3333 22.0003C29.3333 20.9883 28.512 20.167 27.5 20.167C26.488 20.167 25.6667 20.9883 25.6667 22.0003Z" fill="#4D4D4D"/>
</g>
<defs>
<clipPath id="clip0_1_471">
<rect width="44" height="44" fill="white"/>
</clipPath>
</defs>
</svg>
