<svg width="44" height="44" viewBox="0 0 44 44" fill="none" xmlns="http://www.w3.org/2000/svg">
<g clip-path="url(#clip0_1_476)">
<path d="M10.0833 38.5C8.86776 38.5 7.70197 38.0171 6.84243 37.1576C5.98289 36.298 5.5 35.1322 5.5 33.9167V2.75C5.5 2.02065 5.21027 1.32118 4.69454 0.805456C4.17882 0.289731 3.47935 0 2.75 0C2.02065 0 1.32118 0.289731 0.805456 0.805456C0.289731 1.32118 0 2.02065 0 2.75L0 33.9167C0 36.5909 1.06235 39.1557 2.95334 41.0467C4.84433 42.9377 7.40907 44 10.0833 44H41.25C41.9793 44 42.6788 43.7103 43.1945 43.1945C43.7103 42.6788 44 41.9793 44 41.25C44 40.5207 43.7103 39.8212 43.1945 39.3055C42.6788 38.7897 41.9793 38.5 41.25 38.5H10.0833Z" fill="#4D4D4D"/>
<path d="M35.75 33C36.4793 33 37.1788 32.7103 37.6945 32.1945C38.2103 31.6788 38.5 30.9793 38.5 30.25V19.25C38.5 18.5207 38.2103 17.8212 37.6945 17.3055C37.1788 16.7897 36.4793 16.5 35.75 16.5C35.0207 16.5 34.3212 16.7897 33.8055 17.3055C33.2897 17.8212 33 18.5207 33 19.25V30.25C33 30.9793 33.2897 31.6788 33.8055 32.1945C34.3212 32.7103 35.0207 33 35.75 33Z" fill="#4D4D4D"/>
<path d="M13.75 33C14.4793 33 15.1788 32.7103 15.6945 32.1945C16.2103 31.6788 16.5 30.9793 16.5 30.25V19.25C16.5 18.5207 16.2103 17.8212 15.6945 17.3055C15.1788 16.7897 14.4793 16.5 13.75 16.5C13.0207 16.5 12.3212 16.7897 11.8055 17.3055C11.2897 17.8212 11 18.5207 11 19.25V30.25C11 30.9793 11.2897 31.6788 11.8055 32.1945C12.3212 32.7103 13.0207 33 13.75 33Z" fill="#4D4D4D"/>
<path d="M24.75 32.9997C25.4793 32.9997 26.1788 32.7099 26.6945 32.1942C27.2103 31.6785 27.5 30.979 27.5 30.2497V10.083C27.5 9.35366 27.2103 8.65419 26.6945 8.13846C26.1788 7.62274 25.4793 7.33301 24.75 7.33301C24.0207 7.33301 23.3212 7.62274 22.8055 8.13846C22.2897 8.65419 22 9.35366 22 10.083V30.2497C22 30.979 22.2897 31.6785 22.8055 32.1942C23.3212 32.7099 24.0207 32.9997 24.75 32.9997Z" fill="#4D4D4D"/>
</g>
<defs>
<clipPath id="clip0_1_476">
<rect width="44" height="44" fill="white"/>
</clipPath>
</defs>
</svg>
