<svg width="44" height="44" viewBox="0 0 44 44" fill="none" xmlns="http://www.w3.org/2000/svg">
<g clip-path="url(#clip0_1_484)">
<path d="M34.8333 3.66667H33V1.83333C33 1.3471 32.8068 0.880788 32.463 0.536971C32.1192 0.193154 31.6529 0 31.1667 0C30.6804 0 30.2141 0.193154 29.8703 0.536971C29.5265 0.880788 29.3333 1.3471 29.3333 1.83333V3.66667H14.6667V1.83333C14.6667 1.3471 14.4735 0.880788 14.1297 0.536971C13.7859 0.193154 13.3196 0 12.8333 0C12.3471 0 11.8808 0.193154 11.537 0.536971C11.1932 0.880788 11 1.3471 11 1.83333V3.66667H9.16667C6.73641 3.66958 4.40652 4.63628 2.68807 6.35474C0.969617 8.07319 0.00291107 10.4031 0 12.8333L0 34.8333C0.00291107 37.2636 0.969617 39.5935 2.68807 41.3119C4.40652 43.0304 6.73641 43.9971 9.16667 44H34.8333C37.2636 43.9971 39.5935 43.0304 41.3119 41.3119C43.0304 39.5935 43.9971 37.2636 44 34.8333V12.8333C43.9971 10.4031 43.0304 8.07319 41.3119 6.35474C39.5935 4.63628 37.2636 3.66958 34.8333 3.66667ZM3.66667 12.8333C3.66667 11.3746 4.24613 9.9757 5.27758 8.94425C6.30903 7.9128 7.70798 7.33333 9.16667 7.33333H34.8333C36.292 7.33333 37.691 7.9128 38.7224 8.94425C39.7539 9.9757 40.3333 11.3746 40.3333 12.8333V14.6667H3.66667V12.8333ZM34.8333 40.3333H9.16667C7.70798 40.3333 6.30903 39.7539 5.27758 38.7224C4.24613 37.691 3.66667 36.292 3.66667 34.8333V18.3333H40.3333V34.8333C40.3333 36.292 39.7539 37.691 38.7224 38.7224C37.691 39.7539 36.292 40.3333 34.8333 40.3333Z" fill="#4D4D4D"/>
<path d="M22 30.25C23.5188 30.25 24.75 29.0188 24.75 27.5C24.75 25.9812 23.5188 24.75 22 24.75C20.4812 24.75 19.25 25.9812 19.25 27.5C19.25 29.0188 20.4812 30.25 22 30.25Z" fill="#4D4D4D"/>
<path d="M12.8335 30.25C14.3523 30.25 15.5835 29.0188 15.5835 27.5C15.5835 25.9812 14.3523 24.75 12.8335 24.75C11.3147 24.75 10.0835 25.9812 10.0835 27.5C10.0835 29.0188 11.3147 30.25 12.8335 30.25Z" fill="#4D4D4D"/>
<path d="M31.1665 30.25C32.6853 30.25 33.9165 29.0188 33.9165 27.5C33.9165 25.9812 32.6853 24.75 31.1665 24.75C29.6477 24.75 28.4165 25.9812 28.4165 27.5C28.4165 29.0188 29.6477 30.25 31.1665 30.25Z" fill="#4D4D4D"/>
</g>
<defs>
<clipPath id="clip0_1_484">
<rect width="44" height="44" fill="white"/>
</clipPath>
</defs>
</svg>
