<svg width="44" height="44" viewBox="0 0 44 44" fill="none" xmlns="http://www.w3.org/2000/svg">
<g clip-path="url(#clip0_1_448)">
<path d="M36.6667 0H7.33333C5.38841 0 3.52315 0.772617 2.14788 2.14788C0.772617 3.52315 0 5.38841 0 7.33333L0 29.3333C0 31.2783 0.772617 33.1435 2.14788 34.5188C3.52315 35.8941 5.38841 36.6667 7.33333 36.6667H12.65L20.8102 43.5655C21.1412 43.8457 21.5608 43.9994 21.9945 43.9994C22.4282 43.9994 22.8478 43.8457 23.1788 43.5655L31.35 36.6667H36.6667C38.6116 36.6667 40.4768 35.8941 41.8521 34.5188C43.2274 33.1435 44 31.2783 44 29.3333V7.33333C44 5.38841 43.2274 3.52315 41.8521 2.14788C40.4768 0.772617 38.6116 0 36.6667 0ZM40.3333 29.3333C40.3333 30.3058 39.947 31.2384 39.2594 31.9261C38.5718 32.6137 37.6391 33 36.6667 33H31.35C30.4834 33.0003 29.6448 33.3075 28.9832 33.8672L22 39.765L15.0205 33.8672C14.3579 33.3067 13.5179 32.9994 12.65 33H7.33333C6.36087 33 5.42824 32.6137 4.74061 31.9261C4.05298 31.2384 3.66667 30.3058 3.66667 29.3333V7.33333C3.66667 6.36087 4.05298 5.42824 4.74061 4.74061C5.42824 4.05298 6.36087 3.66667 7.33333 3.66667H36.6667C37.6391 3.66667 38.5718 4.05298 39.2594 4.74061C39.947 5.42824 40.3333 6.36087 40.3333 7.33333V29.3333Z" fill="#4D4D4D"/>
<path d="M12.8333 12.8337H22C22.4862 12.8337 22.9525 12.6405 23.2964 12.2967C23.6402 11.9529 23.8333 11.4866 23.8333 11.0003C23.8333 10.5141 23.6402 10.0478 23.2964 9.70396C22.9525 9.36015 22.4862 9.16699 22 9.16699H12.8333C12.3471 9.16699 11.8808 9.36015 11.537 9.70396C11.1932 10.0478 11 10.5141 11 11.0003C11 11.4866 11.1932 11.9529 11.537 12.2967C11.8808 12.6405 12.3471 12.8337 12.8333 12.8337Z" fill="#4D4D4D"/>
<path d="M31.1667 16.5H12.8333C12.3471 16.5 11.8808 16.6932 11.537 17.037C11.1932 17.3808 11 17.8471 11 18.3333C11 18.8196 11.1932 19.2859 11.537 19.6297C11.8808 19.9735 12.3471 20.1667 12.8333 20.1667H31.1667C31.6529 20.1667 32.1192 19.9735 32.463 19.6297C32.8068 19.2859 33 18.8196 33 18.3333C33 17.8471 32.8068 17.3808 32.463 17.037C32.1192 16.6932 31.6529 16.5 31.1667 16.5Z" fill="#4D4D4D"/>
<path d="M31.1667 23.833H12.8333C12.3471 23.833 11.8808 24.0262 11.537 24.37C11.1932 24.7138 11 25.1801 11 25.6663C11 26.1526 11.1932 26.6189 11.537 26.9627C11.8808 27.3065 12.3471 27.4997 12.8333 27.4997H31.1667C31.6529 27.4997 32.1192 27.3065 32.463 26.9627C32.8068 26.6189 33 26.1526 33 25.6663C33 25.1801 32.8068 24.7138 32.463 24.37C32.1192 24.0262 31.6529 23.833 31.1667 23.833Z" fill="#4D4D4D"/>
</g>
<defs>
<clipPath id="clip0_1_448">
<rect width="44" height="44" fill="white"/>
</clipPath>
</defs>
</svg>
