<svg width="44" height="44" viewBox="0 0 44 44" fill="none" xmlns="http://www.w3.org/2000/svg">
<g clip-path="url(#clip0_1_456)">
<path d="M22 0C9.86883 0 0 9.86883 0 22C0 34.1312 9.86883 44 22 44C34.1312 44 44 34.1312 44 22C44 9.86883 34.1312 0 22 0ZM22 40.3333C11.891 40.3333 3.66667 32.109 3.66667 22C3.66667 11.891 11.891 3.66667 22 3.66667C32.109 3.66667 40.3333 11.891 40.3333 22C40.3333 32.109 32.109 40.3333 22 40.3333ZM29.3333 25.6667C29.3333 28.699 26.8657 31.1667 23.8333 31.1667V33C23.8333 34.0138 23.0138 34.8333 22 34.8333C20.9862 34.8333 20.1667 34.0138 20.1667 33V31.1667H19.6753C17.7192 31.1667 15.8932 30.1143 14.9123 28.4185C14.4045 27.5403 14.7052 26.4202 15.5797 25.9142C16.4578 25.4027 17.5798 25.707 18.084 26.5815C18.4122 27.1498 19.0208 27.5 19.6735 27.5H23.8315C24.8435 27.5 25.6648 26.6787 25.6648 25.6667C25.6648 24.9737 25.168 24.387 24.4842 24.2733L18.909 23.3438C16.4487 22.935 14.6648 20.8267 14.6648 18.3333C14.6648 15.301 17.1325 12.8333 20.1648 12.8333V11C20.1648 9.988 20.9843 9.16667 21.9982 9.16667C23.012 9.16667 23.8315 9.988 23.8315 11V12.8333H24.3228C26.279 12.8333 28.105 13.8875 29.0858 15.5833C29.5937 16.4597 29.293 17.5798 28.4185 18.0877C27.5385 18.5955 26.4183 18.2948 25.9142 17.4185C25.586 16.852 24.9773 16.5018 24.3247 16.5018H20.1667C19.1547 16.5018 18.3333 17.325 18.3333 18.3352C18.3333 19.0282 18.8302 19.6148 19.514 19.7285L25.0892 20.658C27.5495 21.0668 29.3333 23.1752 29.3333 25.6685V25.6667Z" fill="#4D4D4D"/>
</g>
<defs>
<clipPath id="clip0_1_456">
<rect width="44" height="44" fill="white"/>
</clipPath>
</defs>
</svg>
