<svg width="44" height="44" viewBox="0 0 44 44" fill="none" xmlns="http://www.w3.org/2000/svg">
<g clip-path="url(#clip0_1_466)">
<path d="M44 18.3335C44.0001 18.1997 43.9853 18.0662 43.956 17.9357L41.5727 7.17765C41.1299 5.13576 39.9985 3.30819 38.3682 2.00139C36.738 0.694586 34.708 -0.0119834 32.6187 0.000153796H11.3813C9.29327 -0.0102968 7.26501 0.697044 5.63627 2.00371C4.00753 3.31037 2.87723 5.13699 2.43467 7.17765L0.0440025 17.9357C0.014684 18.0662 -7.27098e-05 18.1997 2.51056e-06 18.3335V20.1668C-0.00147664 21.9517 0.650692 23.6754 1.83334 25.0123V34.8335C1.83625 37.2637 2.80295 39.5936 4.52141 41.3121C6.23986 43.0305 8.56975 43.9972 11 44.0002H33C35.4303 43.9972 37.7602 43.0305 39.4786 41.3121C41.1971 39.5936 42.1638 37.2637 42.1667 34.8335V25.0123C43.3493 23.6754 44.0015 21.9517 44 20.1668V18.3335ZM3.66667 18.5333L6.01334 7.97332C6.27925 6.74912 6.95753 5.65337 7.93469 4.86944C8.91185 4.08551 10.1286 3.66096 11.3813 3.66682H12.8333V9.16682C12.8333 9.65305 13.0265 10.1194 13.3703 10.4632C13.7141 10.807 14.1804 11.0002 14.6667 11.0002C15.1529 11.0002 15.6192 10.807 15.963 10.4632C16.3068 10.1194 16.5 9.65305 16.5 9.16682V3.66682H27.5V9.16682C27.5 9.65305 27.6932 10.1194 28.037 10.4632C28.3808 10.807 28.8471 11.0002 29.3333 11.0002C29.8196 11.0002 30.2859 10.807 30.6297 10.4632C30.9735 10.1194 31.1667 9.65305 31.1667 9.16682V3.66682H32.6187C33.8714 3.66096 35.0882 4.08551 36.0653 4.86944C37.0425 5.65337 37.7208 6.74912 37.9867 7.97332L40.3333 18.5333V20.1668C40.3333 21.1393 39.947 22.0719 39.2594 22.7595C38.5718 23.4472 37.6391 23.8335 36.6667 23.8335H34.8333C33.8609 23.8335 32.9282 23.4472 32.2406 22.7595C31.553 22.0719 31.1667 21.1393 31.1667 20.1668C31.1667 19.6806 30.9735 19.2143 30.6297 18.8705C30.2859 18.5266 29.8196 18.3335 29.3333 18.3335C28.8471 18.3335 28.3808 18.5266 28.037 18.8705C27.6932 19.2143 27.5 19.6806 27.5 20.1668C27.5 21.1393 27.1137 22.0719 26.4261 22.7595C25.7384 23.4472 24.8058 23.8335 23.8333 23.8335H20.1667C19.1942 23.8335 18.2616 23.4472 17.5739 22.7595C16.8863 22.0719 16.5 21.1393 16.5 20.1668C16.5 19.6806 16.3068 19.2143 15.963 18.8705C15.6192 18.5266 15.1529 18.3335 14.6667 18.3335C14.1804 18.3335 13.7141 18.5266 13.3703 18.8705C13.0265 19.2143 12.8333 19.6806 12.8333 20.1668C12.8333 21.1393 12.447 22.0719 11.7594 22.7595C11.0718 23.4472 10.1391 23.8335 9.16667 23.8335H7.33334C6.36088 23.8335 5.42824 23.4472 4.74061 22.7595C4.05298 22.0719 3.66667 21.1393 3.66667 20.1668V18.5333ZM33 40.3335H11C9.54131 40.3335 8.14237 39.754 7.11092 38.7226C6.07947 37.6911 5.5 36.2922 5.5 34.8335V27.2673C6.09877 27.4224 6.71482 27.5006 7.33334 27.5002H9.16667C10.2077 27.5007 11.2368 27.2791 12.1853 26.85C13.1337 26.421 13.9797 25.7945 14.6667 25.0123C15.3536 25.7945 16.1996 26.421 17.1481 26.85C18.0966 27.2791 19.1257 27.5007 20.1667 27.5002H23.8333C24.8743 27.5007 25.9035 27.2791 26.8519 26.85C27.8004 26.421 28.6464 25.7945 29.3333 25.0123C30.0203 25.7945 30.8663 26.421 31.8147 26.85C32.7632 27.2791 33.7923 27.5007 34.8333 27.5002H36.6667C37.2852 27.5006 37.9012 27.4224 38.5 27.2673V34.8335C38.5 36.2922 37.9205 37.6911 36.8891 38.7226C35.8576 39.754 34.4587 40.3335 33 40.3335Z" fill="#4D4D4D"/>
</g>
<defs>
<clipPath id="clip0_1_466">
<rect width="44" height="44" fill="white"/>
</clipPath>
</defs>
</svg>
