<svg width="44" height="44" viewBox="0 0 44 44" fill="none" xmlns="http://www.w3.org/2000/svg">
<g clip-path="url(#clip0_1_461)">
<path d="M22.0001 22C23.4505 22 24.8683 21.5699 26.0743 20.7641C27.2802 19.9583 28.2202 18.813 28.7752 17.473C29.3303 16.133 29.4755 14.6585 29.1925 13.236C28.9096 11.8135 28.2111 10.5068 27.1856 9.48122C26.16 8.45563 24.8533 7.7572 23.4308 7.47424C22.0082 7.19128 20.5338 7.33651 19.1938 7.89155C17.8538 8.44659 16.7085 9.38652 15.9027 10.5925C15.0969 11.7984 14.6668 13.2163 14.6668 14.6667C14.6668 16.6116 15.4394 18.4769 16.8147 19.8521C18.1899 21.2274 20.0552 22 22.0001 22ZM22.0001 11C22.7253 11 23.4342 11.215 24.0372 11.6179C24.6402 12.0208 25.1101 12.5935 25.3877 13.2635C25.6652 13.9335 25.7378 14.6707 25.5963 15.382C25.4548 16.0933 25.1056 16.7466 24.5928 17.2594C24.08 17.7722 23.4267 18.1214 22.7154 18.2629C22.0042 18.4044 21.2669 18.3317 20.5969 18.0542C19.9269 17.7767 19.3543 17.3067 18.9514 16.7038C18.5485 16.1008 18.3334 15.3919 18.3334 14.6667C18.3334 13.6942 18.7197 12.7616 19.4074 12.0739C20.095 11.3863 21.0276 11 22.0001 11ZM37.8768 16.7878L36.5586 16.3497C36.7958 14.2962 36.5963 12.2158 35.973 10.2448C35.3498 8.27388 34.317 6.45693 32.9423 4.91313C31.5677 3.36934 29.8822 2.13356 27.9964 1.28684C26.1107 0.440123 24.0672 0.00159038 22.0001 0C19.906 0.000808444 17.8364 0.450439 15.9307 1.3186C14.025 2.18676 12.3276 3.45328 10.9527 5.03282C9.57777 6.61237 8.55739 8.46825 7.96027 10.4754C7.36315 12.4826 7.20317 14.5944 7.4911 16.6687C5.73666 16.9958 4.11433 17.8235 2.81977 19.052C1.92359 19.904 1.21115 20.9304 0.726246 22.0679C0.241345 23.2054 -0.00576652 24.4301 0.00010213 25.6667V33.1375C0.00395506 35.1199 0.648721 37.048 1.83818 38.6339C3.02765 40.2199 4.69804 41.3787 6.6001 41.9375L11.8618 43.5875C12.7456 43.8626 13.666 44.0016 14.5916 44C15.4313 43.9989 16.2669 43.8842 17.0758 43.659L27.6724 40.524C28.6165 40.2663 29.6123 40.2663 30.5563 40.524L34.9324 41.9907C36.011 42.2532 37.1351 42.2674 38.2199 42.0323C39.3048 41.7973 40.3221 41.3189 41.1952 40.6335C42.0683 39.948 42.7744 39.0733 43.2603 38.0752C43.7462 37.0772 43.9991 35.9819 44.0001 34.8718V25.432C43.9959 23.5352 43.4053 21.6862 42.309 20.1383C41.2128 18.5905 39.6646 17.4213 37.8768 16.7878ZM14.2231 6.897C15.2429 5.87306 16.4549 5.06059 17.7895 4.50621C19.124 3.95183 20.555 3.66645 22.0001 3.66645C23.4453 3.66645 24.8762 3.95183 26.2108 4.50621C27.5453 5.06059 28.7573 5.87306 29.7771 6.897C31.8344 8.9671 32.9908 11.766 32.9946 14.6845C32.9983 17.603 31.8492 20.4049 29.7973 22.4803L23.2834 28.8145C22.9435 29.1478 22.4863 29.3346 22.0102 29.3346C21.5341 29.3346 21.0769 29.1478 20.7369 28.8145L14.2231 22.5078C12.1615 20.4332 11.0043 17.6272 11.0043 14.7024C11.0043 11.7776 12.1615 8.97162 14.2231 6.897ZM40.3334 34.8718C40.3346 35.4271 40.209 35.9753 39.9663 36.4748C39.7235 36.9742 39.3701 37.4116 38.9328 37.7538C38.5196 38.0861 38.0382 38.3232 37.523 38.4483C37.0078 38.5735 36.4713 38.5836 35.9518 38.478L31.6526 37.0333C30.0264 36.5661 28.303 36.556 26.6714 37.004L16.0674 40.1353C15.0486 40.4164 13.9704 40.3979 12.9618 40.0822L7.6561 38.4322C6.5078 38.1001 5.49819 37.4045 4.77887 36.4498C4.05954 35.4951 3.66931 34.3329 3.66677 33.1375V25.6667C3.66265 24.9256 3.81015 24.1915 4.10021 23.5096C4.39027 22.8276 4.81675 22.2122 5.35344 21.7012C6.19357 20.9005 7.2638 20.3836 8.41327 20.2235C9.1523 22.0553 10.2528 23.7195 11.6491 25.1167L18.1886 31.4472C19.2107 32.448 20.5843 33.0085 22.0148 33.0085C23.4453 33.0085 24.8188 32.448 25.8409 31.4472L32.3731 25.0983C33.8356 23.6299 34.9687 21.8669 35.6969 19.9265L36.6814 20.2528C37.7491 20.6354 38.6728 21.3381 39.3263 22.265C39.9799 23.1919 40.3316 24.2978 40.3334 25.432V34.8718Z" fill="#4D4D4D"/>
</g>
<defs>
<clipPath id="clip0_1_461">
<rect width="44" height="44" fill="white"/>
</clipPath>
</defs>
</svg>
