<svg width="44" height="44" viewBox="0 0 44 44" fill="none" xmlns="http://www.w3.org/2000/svg">
<g clip-path="url(#clip0_1_438)">
<path d="M42.1667 40.3333H9.16667C7.70798 40.3333 6.30903 39.7539 5.27758 38.7224C4.24613 37.691 3.66667 36.292 3.66667 34.8333V1.83333C3.66667 1.3471 3.47351 0.880788 3.1297 0.536971C2.78588 0.193154 2.31956 0 1.83333 0C1.3471 0 0.880788 0.193154 0.536971 0.536971C0.193154 0.880788 0 1.3471 0 1.83333L0 34.8333C0.00291107 37.2636 0.969617 39.5935 2.68807 41.3119C4.40652 43.0304 6.73641 43.9971 9.16667 44H42.1667C42.6529 44 43.1192 43.8068 43.463 43.463C43.8068 43.1192 44 42.6529 44 42.1667C44 41.6804 43.8068 41.2141 43.463 40.8703C43.1192 40.5265 42.6529 40.3333 42.1667 40.3333Z" fill="#4D4D4D"/>
<path d="M10.9998 36.667C11.4861 36.667 11.9524 36.4738 12.2962 36.13C12.64 35.7862 12.8332 35.3199 12.8332 34.8337V22.0003C12.8332 21.5141 12.64 21.0478 12.2962 20.704C11.9524 20.3601 11.4861 20.167 10.9998 20.167C10.5136 20.167 10.0473 20.3601 9.70348 20.704C9.35966 21.0478 9.1665 21.5141 9.1665 22.0003V34.8337C9.1665 35.3199 9.35966 35.7862 9.70348 36.13C10.0473 36.4738 10.5136 36.667 10.9998 36.667Z" fill="#4D4D4D"/>
<path d="M18.3335 18.3333V34.8333C18.3335 35.3196 18.5267 35.7859 18.8705 36.1297C19.2143 36.4735 19.6806 36.6667 20.1668 36.6667C20.6531 36.6667 21.1194 36.4735 21.4632 36.1297C21.807 35.7859 22.0002 35.3196 22.0002 34.8333V18.3333C22.0002 17.8471 21.807 17.3808 21.4632 17.037C21.1194 16.6932 20.6531 16.5 20.1668 16.5C19.6806 16.5 19.2143 16.6932 18.8705 17.037C18.5267 17.3808 18.3335 17.8471 18.3335 18.3333Z" fill="#4D4D4D"/>
<path d="M27.5 23.8333V34.8333C27.5 35.3196 27.6932 35.7859 28.037 36.1297C28.3808 36.4735 28.8471 36.6667 29.3333 36.6667C29.8196 36.6667 30.2859 36.4735 30.6297 36.1297C30.9735 35.7859 31.1667 35.3196 31.1667 34.8333V23.8333C31.1667 23.3471 30.9735 22.8808 30.6297 22.537C30.2859 22.1932 29.8196 22 29.3333 22C28.8471 22 28.3808 22.1932 28.037 22.537C27.6932 22.8808 27.5 23.3471 27.5 23.8333Z" fill="#4D4D4D"/>
<path d="M36.6665 16.5003V34.8337C36.6665 35.3199 36.8597 35.7862 37.2035 36.13C37.5473 36.4738 38.0136 36.667 38.4998 36.667C38.9861 36.667 39.4524 36.4738 39.7962 36.13C40.14 35.7862 40.3332 35.3199 40.3332 34.8337V16.5003C40.3332 16.0141 40.14 15.5478 39.7962 15.204C39.4524 14.8601 38.9861 14.667 38.4998 14.667C38.0136 14.667 37.5473 14.8601 37.2035 15.204C36.8597 15.5478 36.6665 16.0141 36.6665 16.5003Z" fill="#4D4D4D"/>
<path d="M10.9999 16.4999C11.4861 16.4998 11.9524 16.3066 12.2961 15.9628L18.8704 9.38843C19.2199 9.05554 19.684 8.86986 20.1666 8.86986C20.6492 8.86986 21.1133 9.05554 21.4628 9.38843L25.4448 13.3704C26.4762 14.4015 27.8749 14.9808 29.3333 14.9808C30.7917 14.9808 32.1904 14.4015 33.2218 13.3704L43.4628 3.12943C43.7967 2.78366 43.9815 2.32056 43.9773 1.83986C43.9732 1.35917 43.7804 0.899347 43.4404 0.559432C43.1005 0.219517 42.6407 0.0267073 42.16 0.0225302C41.6793 0.0183531 41.2162 0.203143 40.8704 0.537099L30.6294 10.7763C30.2856 11.12 29.8194 11.313 29.3333 11.313C28.8471 11.313 28.3809 11.12 28.0371 10.7763L24.0551 6.7961C23.0237 5.76501 21.625 5.18577 20.1666 5.18577C18.7082 5.18577 17.3095 5.76501 16.2781 6.7961L9.70377 13.3704C9.44745 13.6268 9.27291 13.9535 9.2022 14.309C9.13149 14.6646 9.1678 15.0332 9.30653 15.3681C9.44525 15.7031 9.68018 15.9894 9.98159 16.1908C10.283 16.3923 10.6374 16.4999 10.9999 16.4999Z" fill="#4D4D4D"/>
</g>
<defs>
<clipPath id="clip0_1_438">
<rect width="44" height="44" fill="white"/>
</clipPath>
</defs>
</svg>
