<svg width="9" height="8" viewBox="0 0 9 8" fill="none" xmlns="http://www.w3.org/2000/svg">
<path d="M4.85355 4.35355C5.04882 4.15829 5.04882 3.84171 4.85355 3.64645L1.67157 0.464466C1.47631 0.269204 1.15973 0.269204 0.964466 0.464466C0.769204 0.659728 0.769204 0.97631 0.964466 1.17157L3.79289 4L0.964466 6.82843C0.769204 7.02369 0.769204 7.34027 0.964466 7.53553C1.15973 7.7308 1.47631 7.7308 1.67157 7.53553L4.85355 4.35355ZM4 4.5L4.5 4.5L4.5 3.5L4 3.5L4 4.5Z"/>
<path d="M8.85355 4.35355C9.04882 4.15829 9.04882 3.84171 8.85355 3.64645L5.67157 0.464466C5.47631 0.269204 5.15973 0.269204 4.96447 0.464466C4.7692 0.659728 4.7692 0.97631 4.96447 1.17157L7.79289 4L4.96447 6.82843C4.7692 7.02369 4.7692 7.34027 4.96447 7.53553C5.15973 7.7308 5.47631 7.7308 5.67157 7.53553L8.85355 4.35355ZM8 4.5L8.5 4.5L8.5 3.5L8 3.5L8 4.5Z"/>
</svg>
