<svg width="32" height="32" viewBox="0 0 32 32" fill="none" xmlns="http://www.w3.org/2000/svg">
<g clip-path="url(#clip0_327_13)">
<path d="M30 -0.00390625H2C0.9005 -0.00390625 0 0.896594 0 1.99609V30.0021C0 31.1016 0.9005 32.0021 2 32.0021H30C31.0995 32.0021 32 31.1016 32 30.0021V1.99609C32 0.896594 31.0995 -0.00390625 30 -0.00390625ZM30 30.0021H2V1.99612H30V30.0021ZM7 11.0086H9V13.0086C9 13.5606 9.448 14.0086 10 14.0086C10.552 14.0086 11 13.5606 11 13.0086V11.0086H13C13.552 11.0086 14 10.5606 14 10.0086C14 9.45662 13.552 9.00863 13 9.00863H11V7.00862C11 6.45662 10.552 6.00862 10 6.00862C9.448 6.00862 9 6.45662 9 7.00862V9.00863H7C6.448 9.00863 6 9.45662 6 10.0086C6 10.5606 6.448 11.0086 7 11.0086ZM13.5355 18.4726C13.145 18.0821 12.512 18.0821 12.1215 18.4726L10 20.5936L7.87853 18.4726C7.48803 18.0821 6.85503 18.0821 6.46403 18.4726C6.07353 18.8631 6.07353 19.4966 6.46403 19.8871L8.58503 22.0081L6.46403 24.1291C6.07353 24.5196 6.07353 25.1531 6.46403 25.5436C6.85453 25.9341 7.48753 25.9341 7.87853 25.5436L10 23.4231L12.1215 25.5441C12.512 25.9346 13.145 25.9346 13.5355 25.5441C13.926 25.1536 13.926 24.5201 13.5355 24.1296L11.4145 22.0086L13.5355 19.8876C13.926 19.4966 13.926 18.8636 13.5355 18.4726ZM19 11.0086H25C25.552 11.0086 26 10.5606 26 10.0086C26 9.45659 25.552 9.00859 25 9.00859H19C18.448 9.00859 18 9.45659 18 10.0086C18 10.5606 18.448 11.0086 19 11.0086ZM19 21.0086H25C25.552 21.0086 26 20.5606 26 20.0086C26 19.4566 25.552 19.0086 25 19.0086H19C18.448 19.0086 18 19.4566 18 20.0086C18 20.5606 18.448 21.0086 19 21.0086ZM19 25.0086H25C25.552 25.0086 26 24.5606 26 24.0086C26 23.4566 25.552 23.0086 25 23.0086H19C18.448 23.0086 18 23.4566 18 24.0086C18 24.5606 18.448 25.0086 19 25.0086Z"/>
</g>
<defs>
<clipPath id="clip0_327_13">
<rect width="32" height="32" fill="white"/>
</clipPath>
</defs>
</svg>
