<svg width="70" height="70" viewBox="0 0 70 70" fill="none" xmlns="http://www.w3.org/2000/svg">
<g clip-path="url(#clip0_1_413)">
<path d="M70 29.1667L63.5833 0H6.41667L0.07 28.5338L0 32.0833C0.0105779 34.8987 1.04759 37.6137 2.91667 39.7192V61.25C2.91667 63.5706 3.83854 65.7962 5.47948 67.4372C7.12043 69.0781 9.34602 70 11.6667 70H58.3333C60.654 70 62.8796 69.0781 64.5205 67.4372C66.1615 65.7962 67.0833 63.5706 67.0833 61.25V39.7192C68.9524 37.6137 69.9894 34.8987 70 32.0833V29.1667ZM5.83333 29.4846L11.0833 5.83333H20.4167V17.5H26.25V5.83333H43.75V17.5H49.5833V5.83333H58.9167L64.1667 29.4846V32.0833C64.1667 33.6304 63.5521 35.1142 62.4581 36.2081C61.3642 37.3021 59.8804 37.9167 58.3333 37.9167H55.4167C53.8696 37.9167 52.3858 37.3021 51.2919 36.2081C50.1979 35.1142 49.5833 33.6304 49.5833 32.0833H43.75C43.75 33.6304 43.1354 35.1142 42.0415 36.2081C40.9475 37.3021 39.4638 37.9167 37.9167 37.9167H32.0833C30.5362 37.9167 29.0525 37.3021 27.9585 36.2081C26.8646 35.1142 26.25 33.6304 26.25 32.0833H20.4167C20.4167 33.6304 19.8021 35.1142 18.7081 36.2081C17.6142 37.3021 16.1304 37.9167 14.5833 37.9167H11.6667C10.1196 37.9167 8.63584 37.3021 7.54188 36.2081C6.44791 35.1142 5.83333 33.6304 5.83333 32.0833V29.4846ZM58.3333 64.1667H11.6667C10.8931 64.1667 10.1513 63.8594 9.60427 63.3124C9.05729 62.7654 8.75 62.0235 8.75 61.25V43.3358C9.70042 43.5985 10.6807 43.7377 11.6667 43.75H14.5833C16.2455 43.7446 17.8871 43.3819 19.3968 42.6865C20.9065 41.991 22.249 40.979 23.3333 39.7192C24.4176 40.979 25.7601 41.991 27.2698 42.6865C28.7795 43.3819 30.4211 43.7446 32.0833 43.75H37.9167C39.5728 43.7509 41.21 43.3983 42.719 42.7157C44.2279 42.0332 45.5738 41.0364 46.6667 39.7921C47.7595 41.0364 49.1054 42.0332 50.6144 42.7157C52.1233 43.3983 53.7605 43.7509 55.4167 43.75H58.3333C59.3193 43.7377 60.2996 43.5985 61.25 43.3358V61.25C61.25 62.0235 60.9427 62.7654 60.3957 63.3124C59.8488 63.8594 59.1069 64.1667 58.3333 64.1667Z" fill="#4D4D4D"/>
</g>
<defs>
<clipPath id="clip0_1_413">
<rect width="70" height="70" fill="white"/>
</clipPath>
</defs>
</svg>
