<svg width="70" height="70" viewBox="0 0 70 70" fill="none" xmlns="http://www.w3.org/2000/svg">
<g clip-path="url(#clip0_1_416)">
<path d="M35 0C15.7004 0 0 15.7004 0 35C0 54.2996 15.7004 70 35 70C54.2996 70 70 54.2996 70 35C70 15.7004 54.2996 0 35 0ZM35 64.1667C18.9175 64.1667 5.83333 51.0825 5.83333 35C5.83333 18.9175 18.9175 5.83333 35 5.83333C51.0825 5.83333 64.1667 18.9175 64.1667 35C64.1667 51.0825 51.0825 64.1667 35 64.1667ZM29.1667 29.1667C29.1667 30.2692 29.9571 31.2025 31.045 31.3833L39.9146 32.8621C43.8288 33.5125 46.6667 36.8667 46.6667 40.8333C46.6667 45.6575 42.7408 49.5833 37.9167 49.5833V55.4167H32.0833V49.5833C27.2592 49.5833 23.3333 45.6575 23.3333 40.8333H29.1667C29.1667 42.4433 30.4733 43.75 32.0833 43.75H37.9167C39.5267 43.75 40.8333 42.4433 40.8333 40.8333C40.8333 39.7308 40.0429 38.7975 38.955 38.6167L30.0854 37.1379C26.1712 36.4875 23.3333 33.1333 23.3333 29.1667C23.3333 24.3425 27.2592 20.4167 32.0833 20.4167V14.5833H37.9167V20.4167C42.7408 20.4167 46.6667 24.3425 46.6667 29.1667H40.8333C40.8333 27.5596 39.5267 26.25 37.9167 26.25H32.0833C30.4733 26.25 29.1667 27.5596 29.1667 29.1667Z" fill="white"/>
</g>
<defs>
<clipPath id="clip0_1_416">
<rect width="70" height="70" fill="white"/>
</clipPath>
</defs>
</svg>
