<svg width="70" height="70" viewBox="0 0 70 70" fill="none" xmlns="http://www.w3.org/2000/svg">
<g clip-path="url(#clip0_1_418)">
<path d="M52.5 26.25C52.5 19.2881 49.7344 12.6113 44.8116 7.68845C39.8887 2.76562 33.2119 0 26.25 0C19.2881 0 12.6113 2.76562 7.68845 7.68845C2.76562 12.6113 0 19.2881 0 26.25L0 52.5H26.25C33.2096 52.4923 39.8819 49.7242 44.803 44.803C49.7242 39.8819 52.4923 33.2096 52.5 26.25ZM26.25 43.75H8.75V26.25C8.75 22.7888 9.77636 19.4054 11.6993 16.5275C13.6222 13.6497 16.3553 11.4066 19.553 10.0821C22.7507 8.75758 26.2694 8.41102 29.6641 9.08626C33.0588 9.7615 36.1769 11.4282 38.6244 13.8756C41.0718 16.3231 42.7385 19.4413 43.4137 22.8359C44.089 26.2306 43.7424 29.7493 42.4179 32.947C41.0934 36.1447 38.8503 38.8778 35.9725 40.8007C33.0946 42.7236 29.7112 43.75 26.25 43.75ZM70 46.6667V70H46.6667C42.5749 69.9958 38.5561 68.9157 35.0136 66.868C31.471 64.8202 28.5292 61.8769 26.4833 58.3333C29.7749 58.3103 33.0431 57.7791 36.1725 56.7583C37.5274 58.1773 39.1559 59.307 40.9595 60.079C42.7632 60.851 44.7047 61.2493 46.6667 61.25H61.25V46.6667C61.2486 44.7029 60.8488 42.7598 60.0748 40.955C59.3007 39.1502 58.1685 37.5212 56.7467 36.1667C57.7708 33.0398 58.306 29.7735 58.3333 26.4833C61.8769 28.5292 64.8202 31.471 66.868 35.0136C68.9157 38.5561 69.9958 42.5749 70 46.6667Z" fill="#4D4D4D"/>
</g>
<defs>
<clipPath id="clip0_1_418">
<rect width="70" height="70" fill="white"/>
</clipPath>
</defs>
</svg>
