<svg width="70" height="70" viewBox="0 0 70 70" fill="none" xmlns="http://www.w3.org/2000/svg">
<g clip-path="url(#clip0_1_411)">
<path d="M18.5179 32.0833H8.75C7.97645 32.0833 7.23459 32.3906 6.68761 32.9376C6.14062 33.4846 5.83333 34.2265 5.83333 35V43.75H0V35C0 32.6794 0.921872 30.4538 2.56282 28.8128C4.20376 27.1719 6.42936 26.25 8.75 26.25H21.9829C20.457 27.9488 19.2797 29.9307 18.5179 32.0833ZM61.25 26.25H48.0171C49.543 27.9488 50.7203 29.9307 51.4821 32.0833H61.25C62.0235 32.0833 62.7654 32.3906 63.3124 32.9376C63.8594 33.4846 64.1667 34.2265 64.1667 35V43.75H70V35C70 32.6794 69.0781 30.4538 67.4372 28.8128C65.7962 27.1719 63.5706 26.25 61.25 26.25ZM46.6667 37.9167C46.6667 35.6092 45.9824 33.3536 44.7005 31.435C43.4185 29.5164 41.5964 28.0211 39.4646 27.1381C37.3328 26.2551 34.9871 26.024 32.7239 26.4742C30.4608 26.9243 28.382 28.0355 26.7504 29.6671C25.1188 31.2987 24.0077 33.3775 23.5575 35.6406C23.1073 37.9037 23.3384 40.2495 24.2214 42.3813C25.1044 44.5131 26.5998 46.3352 28.5183 47.6172C30.4369 48.8991 32.6926 49.5833 35 49.5833C38.0942 49.5833 41.0617 48.3542 43.2496 46.1663C45.4375 43.9783 46.6667 41.0109 46.6667 37.9167ZM40.8333 37.9167C40.8333 39.0704 40.4912 40.1982 39.8502 41.1575C39.2093 42.1168 38.2982 42.8645 37.2323 43.306C36.1664 43.7475 34.9935 43.863 33.862 43.6379C32.7304 43.4128 31.691 42.8573 30.8752 42.0415C30.0594 41.2257 29.5038 40.1863 29.2788 39.0547C29.0537 37.9231 29.1692 36.7503 29.6107 35.6844C30.0522 34.6185 30.7999 33.7074 31.7592 33.0664C32.7185 32.4255 33.8463 32.0833 35 32.0833C36.5471 32.0833 38.0308 32.6979 39.1248 33.7919C40.2188 34.8858 40.8333 36.3696 40.8333 37.9167ZM52.5 61.25C52.5 58.9294 51.5781 56.7038 49.9372 55.0628C48.2962 53.4219 46.0706 52.5 43.75 52.5H26.25C23.9294 52.5 21.7038 53.4219 20.0628 55.0628C18.4219 56.7038 17.5 58.9294 17.5 61.25V70H23.3333V61.25C23.3333 60.4765 23.6406 59.7346 24.1876 59.1876C24.7346 58.6406 25.4765 58.3333 26.25 58.3333H43.75C44.5235 58.3333 45.2654 58.6406 45.8124 59.1876C46.3594 59.7346 46.6667 60.4765 46.6667 61.25V70H52.5V61.25ZM64.1667 11.6667C64.1667 9.35922 63.4824 7.10359 62.2005 5.18502C60.9185 3.26645 59.0964 1.7711 56.9646 0.888077C54.8328 0.00505495 52.4871 -0.225984 50.2239 0.224177C47.9608 0.674338 45.882 1.78548 44.2504 3.41709C42.6188 5.04871 41.5077 7.12751 41.0575 9.39062C40.6073 11.6537 40.8384 13.9995 41.7214 16.1313C42.6044 18.2631 44.0998 20.0852 46.0183 21.3672C47.9369 22.6491 50.1926 23.3333 52.5 23.3333C55.5942 23.3333 58.5617 22.1042 60.7496 19.9163C62.9375 17.7283 64.1667 14.7609 64.1667 11.6667ZM58.3333 11.6667C58.3333 12.8204 57.9912 13.9482 57.3502 14.9075C56.7093 15.8668 55.7982 16.6145 54.7323 17.056C53.6664 17.4975 52.4935 17.613 51.362 17.3879C50.2304 17.1628 49.191 16.6073 48.3752 15.7915C47.5594 14.9757 47.0038 13.9363 46.7788 12.8047C46.5537 11.6731 46.6692 10.5003 47.1107 9.43435C47.5522 8.36845 48.2999 7.45741 49.2592 6.81643C50.2185 6.17546 51.3463 5.83334 52.5 5.83334C54.0471 5.83334 55.5308 6.44792 56.6248 7.54188C57.7188 8.63585 58.3333 10.1196 58.3333 11.6667ZM29.1667 11.6667C29.1667 9.35922 28.4824 7.10359 27.2005 5.18502C25.9185 3.26645 24.0964 1.7711 21.9646 0.888077C19.8328 0.00505495 17.4871 -0.225984 15.2239 0.224177C12.9608 0.674338 10.882 1.78548 9.25042 3.41709C7.61881 5.04871 6.50767 7.12751 6.05751 9.39062C5.60734 11.6537 5.83838 13.9995 6.72141 16.1313C7.60443 18.2631 9.09977 20.0852 11.0183 21.3672C12.9369 22.6491 15.1926 23.3333 17.5 23.3333C20.5942 23.3333 23.5617 22.1042 25.7496 19.9163C27.9375 17.7283 29.1667 14.7609 29.1667 11.6667ZM23.3333 11.6667C23.3333 12.8204 22.9912 13.9482 22.3502 14.9075C21.7093 15.8668 20.7982 16.6145 19.7323 17.056C18.6664 17.4975 17.4935 17.613 16.362 17.3879C15.2304 17.1628 14.191 16.6073 13.3752 15.7915C12.5594 14.9757 12.0038 13.9363 11.7788 12.8047C11.5537 11.6731 11.6692 10.5003 12.1107 9.43435C12.5522 8.36845 13.2999 7.45741 14.2592 6.81643C15.2185 6.17546 16.3463 5.83334 17.5 5.83334C19.0471 5.83334 20.5308 6.44792 21.6248 7.54188C22.7188 8.63585 23.3333 10.1196 23.3333 11.6667Z" fill="#4D4D4D"/>
</g>
<defs>
<clipPath id="clip0_1_411">
<rect width="70" height="70" fill="white"/>
</clipPath>
</defs>
</svg>
