<svg viewBox="0 0 28 28" fill="none" xmlns="http://www.w3.org/2000/svg">
<path fill-rule="evenodd" clip-rule="evenodd" d="M20.4152 16.779C20.0659 16.6051 18.3532 15.7675 18.0343 15.6508C17.7155 15.5353 17.4833 15.4781 17.2501 15.8258C17.0179 16.1711 16.3509 16.9528 16.1481 17.1838C15.9441 17.416 15.7413 17.444 15.3932 17.2713C15.045 17.0963 13.922 16.7311 12.5914 15.5505C11.5563 14.6311 10.8565 13.496 10.6537 13.1483C10.4509 12.8018 10.6314 12.614 10.8061 12.4413C10.9631 12.2862 11.1542 12.0365 11.3289 11.8347C11.5036 11.6317 11.561 11.487 11.6771 11.2548C11.7943 11.0238 11.7357 10.822 11.6477 10.6482C11.561 10.4743 10.8647 8.7675 10.5739 8.07334C10.2914 7.39784 10.0042 7.49001 9.79086 7.47834C9.58688 7.46901 9.35477 7.46668 9.12266 7.46668C8.89055 7.46668 8.51308 7.55301 8.19422 7.90068C7.87419 8.24717 6.97505 9.086 6.97505 10.7928C6.97505 12.4985 8.22235 14.147 8.39702 14.3791C8.57169 14.6101 10.8529 18.1125 14.3475 19.614C15.1798 19.9709 15.8281 20.1844 16.3333 20.3431C17.168 20.6079 17.9276 20.5706 18.5278 20.4808C19.196 20.3816 20.5887 19.642 20.8794 18.8323C21.169 18.0226 21.169 17.3285 21.0822 17.1838C20.9955 17.0391 20.7634 16.9528 20.414 16.779H20.4152ZM14.0591 25.4158H14.0544C11.9788 25.4161 9.94135 24.8608 8.15553 23.8081L7.73351 23.5584L3.34685 24.7041L4.51796 20.4481L4.24247 20.0118C3.08208 18.1735 2.46799 16.046 2.47116 13.8751C2.47351 7.51684 7.67138 2.34387 14.0638 2.34387C17.1586 2.34387 20.0682 3.54553 22.2557 5.72485C23.3346 6.79419 24.1898 8.06583 24.7717 9.46621C25.3536 10.8666 25.6508 12.3679 25.6459 13.8833C25.6436 20.2416 20.4457 25.4158 14.0591 25.4158ZM23.9203 4.06936C22.6287 2.77544 21.0919 1.7495 19.3989 1.05098C17.706 0.352454 15.8906 -0.0047556 14.0579 4.78069e-05C6.37484 4.78069e-05 0.119572 6.22418 0.117228 13.874C0.116055 16.3193 0.757291 18.7063 1.97763 20.8098L0 27.9999L7.39004 26.0703C9.43434 27.1787 11.7252 27.7595 14.0533 27.7596H14.0591C21.7422 27.7596 27.9975 21.5354 27.9998 13.8845C28.0055 12.0613 27.6479 10.2551 26.9476 8.57038C26.2474 6.88564 25.2185 5.3558 23.9203 4.06936Z"/>
</svg>
