<svg viewBox="0 0 132 132" fill="none" xmlns="http://www.w3.org/2000/svg">
<rect width="132" height="132" fill="#FF7A00"/>
<path d="M63.1105 93.4138L59.1238 80.3697H39.1904L35.2037 93.4138H22.707L42.0271 38.3984H56.2105L75.6072 93.4138H63.1105ZM52.3771 57.8878C52.1216 57.0182 51.7893 55.9184 51.3804 54.5885C50.9716 53.2585 50.5627 51.9029 50.1538 50.5218C49.7449 49.1406 49.4127 47.9385 49.1571 46.9155C48.9016 47.9385 48.5438 49.2174 48.0838 50.752C47.6749 52.2354 47.266 53.6677 46.8571 55.0488C46.4993 56.3788 46.2182 57.3252 46.0138 57.8878L42.1038 70.625H56.3638L52.3771 57.8878Z" fill="white"/>
<path d="M98.8124 69.8104H108.321C108.845 69.8104 109.107 70.0726 109.107 70.5971V77.0038C109.107 77.5533 108.845 77.828 108.321 77.828H98.8124V87.3443C98.8124 87.8689 98.5379 88.1311 97.9888 88.1311H91.5874C91.0633 88.1311 90.8013 87.8689 90.8013 87.3443V77.828H81.2928C80.7687 77.828 80.5067 77.5533 80.5067 77.0038V70.5971C80.5067 70.0726 80.7687 69.8104 81.2928 69.8104H90.8013V60.294C90.8013 59.7695 91.0633 59.5073 91.5874 59.5073H97.9888C98.5379 59.5073 98.8124 59.7695 98.8124 60.294V69.8104Z" fill="white"/>
</svg>
